<?xml version="1.0"?>
<svg xmlns="http://www.w3.org/2000/svg" width="50" height="50" viewBox="0 0 50 50">
    <path style="text-indent:0;text-align:start;line-height:normal;text-transform:none;block-progression:tb;-inkscape-font-specification:Bitstream Vera Sans" d="M 7.34375 0 A 1.0001 1.0001 0 0 0 6.53125 0.78125 C 6.5277837 0.77044696 6.517385 0.76928785 6.5 0.8125 C 6.4652316 0.8989243 6.3988567 1.0846291 6.25 1.34375 C 5.9522867 1.8619917 5.3697589 2.7480005 4.25 4.0625 A 1.0001 1.0001 0 0 0 4.21875 4.0625 C 2.6329403 6.0007118 2.893758 8.1461594 3.59375 9.53125 C 3.681249 9.7043864 3.7784429 9.8437926 3.875 10 L 3 10 A 1.0001 1.0001 0 0 0 2.90625 10 A 1.0001 1.0001 0 0 0 2.8125 10 A 1.0001 1.0001 0 0 0 2 11 L 2 14 A 1.0001 1.0001 0 0 0 3 15 L 3.90625 15 C 3.8516338 15.42216 3.877227 15.869153 4 16.3125 C 4.2747596 17.304687 5.2040836 18.112915 6.5 18.625 C 6.809116 21.05354 7.2638082 23.534541 7.6875 25.5 C 8.1387511 27.593304 8.4862493 28.985099 8.65625 29.5 C 8.65853 29.5071 8.65395 29.52409 8.65625 29.53125 C 8.8401457 30.102751 9.260105 31.28992 9.5625 32.1875 C 9.341791 32.697329 8.9556634 33.617216 8.46875 34.9375 C 7.80441 36.738883 7.09375 38.829012 7.09375 40.5 C 7.09375 43.310544 8.8166112 44.966283 10.5 45.625 C 11.781029 46.126272 12.903757 46.180306 13.625 46.1875 C 13.68836 46.323335 13.70739 46.478988 13.78125 46.625 C 14.002844 47.063035 14.266484 47.536083 14.53125 47.96875 C 15.060782 48.834083 15.5625 49.5625 15.5625 49.5625 A 1.0001 1.0001 0 0 0 16.40625 50 L 39.8125 50 L 44.90625 50 A 1.0001 1.0001 0 0 0 45.78125 49.46875 L 48.46875 44.375 A 1.0001 1.0001 0 0 0 48.5625 44.15625 C 48.6553 43.785048 48.65744 43.372554 48.53125 42.96875 C 48.405061 42.564946 48.124578 42.140414 47.65625 41.90625 L 41.84375 39 C 41.624493 38.890372 41.38709 38.826489 41.15625 38.8125 C 40.92541 38.798511 40.701134 38.834416 40.5 38.90625 C 40.097732 39.049917 39.776285 39.335573 39.5625 39.65625 A 1.0001 1.0001 0 0 0 39.5 39.75 L 39.46875 39.84375 C 38.937587 38.385908 38.274514 37.155685 37.46875 36.21875 C 36.24632 34.79732 34.658642 34 33 34 L 24.59375 34 C 24.431793 34 23.668239 33.747311 22.84375 33.25 C 22.019261 32.752689 21.092066 32.07121 20.21875 31.375 C 18.472118 29.98258 17 28.5625 17 28.5625 A 1.0001 1.0001 0 0 0 16.78125 28.40625 A 1.0001 1.0001 0 0 0 16.75 28.375 A 1.0001 1.0001 0 0 0 16.6875 28.34375 A 1.0001 1.0001 0 0 0 16.65625 28.34375 A 1.0001 1.0001 0 0 0 16.59375 28.3125 A 1.0001 1.0001 0 0 0 16.5625 28.3125 A 1.0001 1.0001 0 0 0 16.5 28.28125 A 1.0001 1.0001 0 0 0 16.46875 28.28125 A 1.0001 1.0001 0 0 0 16.40625 28.28125 A 1.0001 1.0001 0 0 0 16.375 28.28125 C 15.892124 27.296143 15.420653 26.232703 14.9375 25.15625 C 16.276459 25.374999 17.861253 25.611102 19.375 25.78125 C 19.628336 26.429764 19.980046 27.050406 20.4375 27.59375 C 20.766591 28.588669 21.251372 29.528268 21.84375 30.34375 C 22.918144 31.822786 24.313768 33 26 33 C 27.671739 33 29.078505 31.844652 30.15625 30.375 C 30.750476 29.564692 31.233951 28.6256 31.5625 27.625 C 32.053247 27.088769 32.438011 26.446963 32.6875 25.75 C 35.791744 25.36079 39.59375 24.859819 39.59375 24.59375 C 39.59375 24.325088 36.076088 23.859499 32.96875 23.46875 C 32.919774 22.984548 32.827176 22.500762 32.65625 22.0625 C 35.111555 20.225411 37.902181 17.991862 37.8125 17.8125 C 37.723029 17.544087 34.280757 18.924712 31.40625 20.15625 C 31.108427 19.850474 30.767018 19.591964 30.40625 19.34375 C 31.64211 16.460708 33.082265 12.996172 32.8125 12.90625 C 32.546848 12.729148 30.256629 15.822558 28.34375 18.34375 C 27.972657 18.231296 27.580921 18.151813 27.1875 18.09375 C 26.79522 14.959593 26.27145 11 26 11 C 25.72855 11 25.20478 14.959593 24.8125 18.09375 C 24.451282 18.14706 24.092644 18.213189 23.75 18.3125 C 21.879351 15.791858 19.456326 12.722891 19.1875 12.8125 C 18.915382 12.903206 20.381891 16.474563 21.625 19.3125 C 21.250403 19.566811 20.901394 19.840392 20.59375 20.15625 C 17.736311 18.925288 14.366324 17.544265 14.1875 17.8125 C 14.097896 18.081312 16.889949 20.241969 19.34375 22.0625 C 19.176504 22.491327 19.081914 22.964585 19.03125 23.4375 C 17.402137 23.623469 15.672576 23.822059 14.4375 24.0625 C 13.404491 21.684476 12.440303 19.23021 11.75 17 C 11.629682 16.173954 11.482666 15.539713 11.34375 15 L 12 15 A 1.0001 1.0001 0 0 0 13 14 L 13 11 A 1.0001 1.0001 0 0 0 12 10 L 11.3125 10 C 11.391306 9.8462962 11.453642 9.6773893 11.53125 9.5 A 1.0001 1.0001 0 0 0 11.53125 9.46875 C 12.068816 8.1547002 12.092447 6.8359329 11.90625 5.71875 C 11.720053 4.6015671 11.36625 3.7070833 10.90625 3.09375 A 1.0001 1.0001 0 0 0 9.9375 2.71875 C 9.7863331 2.1072134 9.5316887 1.5630265 9.21875 1.1875 C 8.6613091 0.51857095 8 0.15625 8 0.15625 A 1.0001 1.0001 0 0 0 7.34375 0 z M 7.71875 2.6875 C 7.9396332 3.0034574 8.1490226 3.2947687 8.03125 3.71875 A 1.0001 1.0001 0 0 0 8.03125 3.78125 C 7.8274637 4.6982885 8.2031703 5.6875079 9.28125 5.875 C 9.4753568 5.908758 9.587361 5.6862902 9.78125 5.625 C 9.832288 5.8047246 9.904471 5.833076 9.9375 6.03125 C 10.074703 6.8544663 10.038157 7.8100299 9.6875 8.6875 C 9.68341 8.697734 9.69168 8.708537 9.6875 8.71875 C 9.383692 9.4032871 9.0751226 9.7918358 8.90625 9.96875 C 8.8581097 10.019183 8.8911298 9.9800781 8.875 10 L 6.40625 10 C 6.1660175 9.7720491 5.731256 9.3299321 5.375 8.625 C 4.899992 7.6850906 4.6670597 6.7055382 5.78125 5.34375 L 5.75 5.34375 C 5.75795 5.33442 5.7421 5.321792 5.75 5.3125 C 6.7817123 4.0990593 7.3274849 3.3290484 7.71875 2.6875 z M 4 12 L 8.65625 12 A 1.0001 1.0001 0 0 0 9.4375 12 L 11 12 L 11 13 L 10.25 13 A 1.0001 1.0001 0 0 0 10.03125 12.96875 A 1.0001 1.0001 0 0 0 9.84375 13 L 8.09375 13 L 5.90625 13 A 1.0001 1.0001 0 0 0 5.375 12.96875 A 1.0001 1.0001 0 0 0 5.28125 13 L 4 13 L 4 12 z M 6 15 L 8.09375 15 L 9.3125 15 C 9.4642509 15.448509 9.6442274 16.147411 9.8125 17.4375 A 1.0001 1.0001 0 0 0 9.84375 17.59375 C 11.137259 21.772779 13.268174 26.630989 15.15625 30.34375 C 14.951416 31.839802 14.522719 34.563533 13.75 37.03125 C 13.682233 37.247666 13.604788 37.446896 13.53125 37.65625 C 13.01843 36.173051 12.505278 34.737769 11.6875 32.3125 A 1.0001 1.0001 0 0 0 11.6875 32.28125 A 1.0001 1.0001 0 0 0 11.375 31.3125 C 11.11061 30.522801 10.723679 29.407695 10.5625 28.90625 A 1.0001 1.0001 0 0 0 10.5625 28.875 C 10.531016 28.780548 10.070417 27.128742 9.625 25.0625 C 9.1795826 22.996258 8.7005785 20.376792 8.40625 17.875 A 1.0001 1.0001 0 0 0 7.625 17.03125 C 6.3839385 16.741669 6.0288554 16.223992 5.90625 15.78125 C 5.8256328 15.490132 5.9097421 15.198066 6 15 z M 26 20 C 28.123039 20 29.845901 21.028379 30.59375 22.4375 C 30.385848 22.269817 30.168215 22.101026 29.9375 21.96875 C 28.806545 21.320336 27.41 21 26 21 C 24.576667 21 23.186323 21.34069 22.0625 22 C 21.819735 22.142422 21.59289 22.289078 21.375 22.46875 C 22.111979 21.040402 23.858333 20 26 20 z M 26 23 C 27.09 23 28.193455 23.292164 28.9375 23.71875 C 29.681545 24.145336 30 24.582346 30 25.09375 C 30 25.619548 29.903511 26.172167 29.75 26.71875 A 1.0001 1.0001 0 0 0 29.625 27.125 C 29.370182 27.865807 29.005015 28.58407 28.5625 29.1875 C 27.715245 30.342848 26.628261 31 26 31 C 25.386232 31 24.288106 30.327214 23.4375 29.15625 C 22.987478 28.536739 22.629534 27.809831 22.375 27.0625 A 1.0001 1.0001 0 0 0 22.25 26.6875 C 22.096907 26.146487 22 25.597206 22 25.09375 C 22 24.656713 22.311323 24.19069 23.0625 23.75 C 23.813677 23.30931 24.923333 23 26 23 z M 17.03125 31.28125 C 17.583082 31.772889 18.225253 32.344782 18.96875 32.9375 C 19.882934 33.66629 20.865114 34.397311 21.8125 34.96875 C 22.759886 35.540189 23.605707 36 24.59375 36 L 33 36 C 34.041358 36 35.00993 36.45268 35.9375 37.53125 C 36.816839 38.553738 37.598094 40.179062 38.125 42.375 L 35.1875 48 L 16.9375 48 C 16.766204 47.746112 16.603253 47.483517 16.25 46.90625 C 16.027451 46.542572 15.801277 46.177201 15.625 45.84375 C 16.584812 45.360139 17.295647 44.450054 17.84375 43.65625 C 18.63593 42.508955 19.125 41.40625 19.125 41.40625 A 1.0001 1.0001 0 0 0 18.125 39.96875 A 1.0001 1.0001 0 0 0 18 40 A 1.0001 1.0001 0 0 0 17.28125 40.59375 C 17.28125 40.59375 16.84532 41.578545 16.1875 42.53125 C 15.543014 43.464643 14.689212 44.159739 14.21875 44.1875 C 14.190224 44.187568 14.126034 44.187446 14.09375 44.1875 C 13.48803 44.188504 12.308699 44.176499 11.21875 43.75 C 11.069799 43.691715 10.920813 43.630189 10.78125 43.5625 C 11.661483 43.538172 12.455341 43.135128 13.0625 42.5625 C 13.441179 42.205358 13.766044 41.776467 14.0625 41.3125 A 1.0001 1.0001 0 0 0 14.15625 41.1875 C 14.163874 41.175068 14.179925 41.168743 14.1875 41.15625 A 1.0001 1.0001 0 0 0 14.34375 40.90625 A 1.0001 1.0001 0 0 0 14.40625 40.75 A 1.0001 1.0001 0 0 0 14.40625 40.71875 C 14.9087 39.785304 15.311995 38.724397 15.65625 37.625 C 16.384191 35.300285 16.795933 32.907054 17.03125 31.28125 z M 10.53125 35.125 C 11.450105 37.808465 12.181505 39.907298 12.3125 40.28125 C 12.105054 40.603661 11.894898 40.898147 11.6875 41.09375 C 11.320268 41.440097 11.035221 41.560376 10.71875 41.5625 C 10.402279 41.5646 9.960926 41.45007 9.34375 40.9375 A 1.0001 1.0001 0 0 0 9.09375 40.78125 C 9.0893792 40.685756 9.09375 40.602009 9.09375 40.5 C 9.09375 39.470988 9.70809 37.348617 10.34375 35.625 C 10.4149 35.432073 10.46077 35.308339 10.53125 35.125 z M 41.15625 40.90625 L 46.625 43.625 C 46.624664 43.6379 46.6274 43.64665 46.625 43.65625 L 44.3125 48 L 39.8125 48 L 37.4375 48 L 39.96875 43.15625 A 1.0083877 1.0083877 0 0 0 40 43.125 L 40.15625 42.8125 A 1.0083877 1.0083877 0 0 0 40.1875 42.71875 L 41.15625 40.90625 z"/>
</svg>
