<?xml version="1.0"?>
<svg xmlns="http://www.w3.org/2000/svg" width="50" height="50" viewBox="0 0 50 50">
    <path d="M 25 0 C 24.852125 -0.000125 24.699 0.02875 24.5625 0.09375 L 2.34375 10.71875 L 2.09375 10.8125 C 1.15475 11.2735 0 11.86825 0 13.40625 L 0 14.1875 C -5.9211895e-16 15.5515 1.2625 17 2.8125 17 L 47.1875 17 C 48.7315 17 50 15.8565 50 14.3125 L 50 13.5 C 50 11.874 48.806 11.3495 47.625 10.8125 L 25.4375 0.09375 C 25.3005 0.02825 25.147875 0.000125 25 0 z M 3 19 L 3 19.40625 C 3 20.86425 4.13575 22 5.59375 22 L 14.40625 22 C 15.86425 22 17 20.86425 17 19.40625 L 17 19 L 3 19 z M 18 19 L 18 19.40625 C 18 20.86425 19.13575 22 20.59375 22 L 29.40625 22 C 30.86325 22 32 20.86425 32 19.40625 L 32 19 L 18 19 z M 33 19 L 33 19.40625 C 33 20.86425 34.13675 22 35.59375 22 L 44.40625 22 C 45.86325 22 47 20.86425 47 19.40625 L 47 19 L 33 19 z M 5 22.9375 L 5 42 L 15 42 L 15 22.9375 C 14.802 22.9625 14.61225 23 14.40625 23 L 5.59375 23 C 5.38775 23 5.198 22.9625 5 22.9375 z M 20 22.9375 L 20 42 L 30 42 L 30 22.9375 C 29.802 22.9625 29.61125 23 29.40625 23 L 20.59375 23 C 20.38775 23 20.198 22.9625 20 22.9375 z M 35 22.9375 L 35 42 L 45 42 L 45 22.9375 C 44.802 22.9625 44.61125 23 44.40625 23 L 35.59375 23 C 35.38875 23 35.2 22.9625 35 22.9375 z M 1.75 44 C 0.77277539 44.124346 1.6881288e-16 45.056875 0 46.09375 L 0 47.8125 C 2.9605947e-16 49.0455 0.91575 50 2.09375 50 L 47.90625 50 C 49.06525 50 50 49.06525 50 47.90625 L 50 46.1875 C 50 45.0285 49.06525 44 47.90625 44 L 2.15625 44 C 2.009375 43.9825 1.8896035 43.982236 1.75 44 z"/>
</svg>
